<?xml version="1.0" encoding="utf-8"?>
<!-- Generator: Adobe Illustrator 21.0.2, SVG Export Plug-In . SVG Version: 6.00 Build 0)  -->
<!DOCTYPE svg PUBLIC "-//W3C//DTD SVG 1.1//EN" "http://www.w3.org/Graphics/SVG/1.1/DTD/svg11.dtd">
<svg version="1.1" id="Layer_1" xmlns="http://www.w3.org/2000/svg" xmlns:xlink="http://www.w3.org/1999/xlink" x="0px" y="0px"
	 viewBox="0 0 636.2 197.5" enable-background="new 0 0 636.2 197.5" xml:space="preserve">
<g>
	<path fill="#464648" d="M287.3,115.4c-5.7,4.5-13.8,7.5-22.7,7.5c-20.5,0-29.3-12.2-29.3-28.5c0-16.6,11.2-28.8,28.6-28.8
		c15.3,0,23.5,8.5,24,20.9l-9.7,2.3c-0.5-8.3-4.9-13.6-14.2-13.6c-11,0-17.6,8.1-17.6,18.9c0,10.7,5.6,19.2,19.4,19.2
		c6,0,12.7-3,17.1-6.4L287.3,115.4z"/>
	<path fill="#464648" d="M352.3,107.1c0,3.6,1.1,6.1,4.4,6.1c2.1,0,3.9-0.7,5.8-1.9l0.7,8.6c-2.5,1.4-6.5,2.5-10.5,2.5
		c-5.9,0-9.2-2.7-10.5-8c-3.8,4.4-10.3,7.9-18,7.9c-15.6,0-26-11.6-26-28c0-16.5,10.4-28.3,26-28.3c7.5,0,13.4,2.6,17.2,6.4v-5.5
		h10.8V107.1z M341.5,81.8c-2.8-3.1-8.4-6.1-14.4-6.1c-10.9,0-17.9,7.7-17.9,18.8c0,10.9,7.1,18.6,17.9,18.6c6,0,11.3-2.9,14.4-6.1
		V81.8z"/>
	<path fill="#464648" d="M378.3,81.5c0-3.7-0.9-6.1-4.4-6.1c-2.2,0-4.5,0.9-5.8,1.8l-0.7-8.4c1.1-1,5.8-2.6,10.6-2.6
		c6.2,0,9.9,3,10.8,9.4c2.8-5.7,6.9-9.4,14.1-9.4c5.1,0,8.7,1.9,9.9,3.7l-2,9.6c-1.1-1.8-4.7-3.3-9.5-3.3c-7.7,0-10.8,7.1-12.3,14.3
		v31h-10.8V81.5z"/>
	<path fill="#464648" d="M432.3,81.5c0-3.7-0.9-6.1-4.4-6.1c-2.2,0-4.5,0.9-5.8,1.8l-0.7-8.4c1.1-1,5.8-2.6,10.6-2.6
		c6.2,0,9.9,3,10.8,9.4c2.8-5.7,6.9-9.4,14.1-9.4c5.1,0,8.7,1.9,9.9,3.7l-2,9.6c-1.1-1.8-4.7-3.3-9.5-3.3c-7.7,0-10.8,7.1-12.3,14.3
		v31h-10.8V81.5z"/>
	<path fill="#464648" d="M500.7,65.6c17,0,29.1,12.3,29.1,28.8c0,16.3-12.1,28.5-29.1,28.5c-16.8,0-29-12.2-29-28.5
		C471.7,77.9,483.8,65.6,500.7,65.6z M500.7,112.9c11.1,0,18.7-8,18.7-18.5c0-10.7-7.6-18.8-18.7-18.8c-10.9,0-18.5,8.1-18.5,18.8
		C482.2,104.9,489.8,112.9,500.7,112.9z"/>
	<path fill="#464648" d="M558.4,53.3v13.8h21.2v8.5h-21.2v27c0,7.1,3.1,10.4,8.7,10.4c4.2,0,9-2,12.1-4.2l3.5,8.4
		c-4.9,3-11.3,5.2-18.8,5.2c-10.1,0-16.3-6.1-16.3-17.8V75.6h-10.2v-8.5h10.2l1.2-13.8H558.4z"/>
	<path fill="#464648" d="M632.9,79.6c-4.6-2.3-11.5-4.3-17.5-4.3c-6.6,0-11.7,2.6-11.7,7.3c0,3.8,2.6,4.9,7.8,6.1l11.2,2.6
		c9.1,2.3,13.5,6.7,13.5,14.4c0,10-7.9,16.7-21.6,16.7c-9.2,0-16.5-2.6-20.7-4.7l2.2-9.4c4.5,2.4,11,5,18.1,5c7.2,0,11.2-2.6,11.2-7
		c0-3.4-3.4-4.8-8.5-6L606.4,98c-8.8-2.2-13.5-6.3-13.5-14.5c0-10.1,8.9-17.2,23.4-17.2c7,0,15.5,2,19.5,3.9L632.9,79.6z"/>
</g>
<polygon fill="#F99D3F" points="107.2,64.2 197.5,197.5 150.2,21.2 "/>
<polygon fill="#F99D3F" points="21.2,150.2 197.5,197.5 64.2,107.2 "/>
<polygon fill="#F26522" points="21.2,107.2 64.2,64.2 64.2,107.2 21.2,150.2 "/>
<polygon fill="#F26522" points="64.2,107.2 197.5,197.5 107.2,64.2 "/>
<polygon fill="#009F86" points="64.2,64.2 0,64.2 64.2,0 "/>
<g>
	<polygon fill="#F26522" points="107.2,21.2 64.2,64.2 107.2,64.2 150.2,21.2 	"/>
</g>
<polygon fill="#F99D3F" points="64.2,64.2 107.2,64.2 64.2,107.2 "/>
</svg>
